<?xml version="1.0" standalone="no"?>
<svg version="1.0" xmlns="http://www.w3.org/2000/svg"
 width="648.000000pt" height="385.000000pt" viewBox="0 0 648.000000 385.000000"
 preserveAspectRatio="xMidYMid meet">

<g transform="translate(0.000000,385.000000) scale(0.100000,-0.100000)"
fill="none" stroke="#000000" stroke-width= "10">
<path d="M0 3215 c0 -8 32 -14 103 -18 117 -7 248 -37 310 -69 l42 -23 -105
-6 c-101 -7 -249 -23 -318 -34 -28 -5 -32 -10 -32 -35 0 -27 3 -29 28 -25 173
31 392 43 482 26 68 -14 164 -121 325 -366 72 -110 135 -206 139 -213 4 -7 2
-34 -5 -61 -14 -56 -7 -93 23 -120 25 -24 19 -27 -55 -34 -61 -6 -194 -72
-221 -110 -20 -27 -20 -29 -4 -55 46 -73 46 -70 -4 -115 -106 -95 -104 -278 3
-376 42 -38 44 -42 44 -98 0 -53 2 -59 28 -71 15 -7 49 -17 76 -21 31 -5 63
-19 89 -39 22 -18 43 -32 46 -32 3 0 27 15 53 34 35 24 66 36 116 44 38 6 75
16 83 23 34 28 3 58 -63 60 l-38 1 47 14 c34 11 59 28 89 62 64 73 79 110 79
195 0 64 -4 79 -33 127 -17 30 -47 64 -64 76 l-33 22 35 23 c40 28 55 57 55
104 0 50 -38 81 -140 110 -47 14 -96 29 -110 33 -21 6 -26 15 -31 57 -3 28
-12 70 -19 96 -13 45 -13 45 35 131 75 135 169 251 267 330 l43 36 180 -18
c99 -10 250 -23 335 -30 85 -6 163 -14 172 -16 10 -3 31 -33 48 -68 26 -52 29
-67 20 -90 -13 -35 -13 -75 1 -128 11 -39 8 -53 -21 -141 -37 -112 -26 -106
-180 -110 l-105 -2 67 -34 c37 -19 79 -44 94 -56 l27 -21 -15 -50 c-40 -128
-50 -166 -43 -172 4 -4 13 1 20 11 7 10 48 42 90 71 l76 53 28 -26 c16 -14 58
-41 95 -60 37 -19 69 -38 72 -42 3 -5 13 -9 24 -9 16 0 11 14 -31 98 -27 53
-47 102 -45 108 3 7 42 35 88 63 95 58 135 87 128 94 -3 3 -25 1 -50 -3 -69
-14 -211 -1 -217 19 -3 9 -18 47 -35 84 -27 61 -30 79 -32 185 l-2 116 47 49
c45 47 50 49 86 42 21 -3 193 -8 383 -10 l345 -4 32 -41 c39 -50 68 -125 83
-213 10 -58 9 -75 -10 -153 -18 -69 -21 -108 -18 -189 3 -93 7 -108 40 -176
45 -91 51 -149 20 -182 -12 -13 -22 -33 -22 -45 0 -44 -22 -71 -72 -89 -63
-22 -115 -72 -124 -119 -8 -43 1 -53 42 -47 26 4 33 11 38 35 7 37 67 98 96
98 l21 0 -20 -26 c-15 -18 -21 -41 -21 -74 l0 -46 43 5 42 6 8 70 c9 82 17 95
46 66 17 -17 21 -33 21 -80 l0 -59 38 -5 c20 -2 41 0 47 5 15 14 11 79 -7 116
-16 30 -15 32 2 32 25 0 39 -20 49 -75 11 -59 25 -73 81 -83 51 -9 62 -28 24
-42 -49 -19 -519 -6 -553 14 -16 10 -61 -16 -61 -35 0 -35 34 -39 314 -42
l274 -2 5 -35 c2 -19 3 -37 1 -39 -2 -2 -17 10 -33 28 -47 51 -123 42 -160
-20 l-18 -30 -17 26 c-22 33 -74 65 -106 65 -32 0 -97 -43 -105 -71 -7 -20 -8
-19 -27 12 -24 40 -36 49 -64 49 -20 0 -21 -6 -28 -183 -4 -101 -4 -195 -1
-209 6 -23 4 -25 -20 -20 l-26 5 6 -54 c12 -109 15 -119 34 -119 48 0 83 14
91 36 32 83 124 85 145 4 6 -24 10 -25 75 -25 63 0 70 2 75 22 8 35 34 53 75
53 39 0 63 -22 71 -65 3 -15 13 -21 42 -22 21 -1 49 2 62 7 23 9 25 15 25 70
0 52 -2 60 -19 60 -17 0 -19 13 -25 172 -9 228 -3 301 23 327 34 34 22 76 -29
100 -20 9 -36 25 -38 36 -9 61 -35 96 -93 123 l-57 27 5 47 c7 60 -11 89 -67
108 -58 19 -70 41 -70 127 0 77 -17 296 -29 378 -10 71 23 162 114 306 67 108
90 125 171 133 79 8 409 61 469 76 22 5 62 10 89 10 41 0 56 -5 92 -35 43 -35
70 -94 60 -126 -2 -8 -7 -26 -10 -41 -4 -16 -20 -35 -43 -49 -65 -40 -124
-102 -156 -164 -26 -51 -31 -72 -31 -135 -1 -63 4 -84 28 -135 33 -67 89 -124
156 -157 59 -30 215 -33 270 -5 66 34 85 46 115 75 17 15 45 38 62 51 18 12
33 29 33 37 0 26 -36 14 -68 -22 -33 -37 -33 -37 -100 -31 -111 8 -197 71
-248 181 -20 44 -24 67 -24 159 0 133 11 160 78 188 70 31 206 52 282 44 126
-12 129 -13 136 -54 13 -72 77 -104 132 -65 48 33 17 85 -67 110 l-36 10 2 56
c2 65 33 145 70 180 24 23 27 23 246 22 302 -2 482 -18 522 -46 47 -33 107
-105 143 -171 l32 -61 -53 -28 c-37 -20 -63 -44 -86 -80 -37 -56 -52 -128 -31
-153 24 -28 38 -17 45 38 12 85 45 131 118 162 21 9 35 20 32 25 -3 6 2 10 13
10 13 0 30 -21 55 -71 36 -69 43 -101 31 -133 -7 -18 -63 -22 -92 -7 -45 22
-70 21 -101 -5 -43 -36 -42 -77 2 -105 28 -17 45 -20 136 -17 77 2 105 0 108
-9 3 -8 -5 -13 -23 -13 l-27 0 5 -67 c4 -50 15 -89 42 -144 59 -126 48 -181
-49 -240 -55 -34 -60 -29 -62 73 0 51 -2 105 -2 121 -1 15 0 42 1 60 2 35 -20
127 -32 127 -3 0 -17 -23 -30 -50 -23 -49 -23 -51 -6 -87 17 -36 17 -36 -10
-64 -25 -27 -26 -31 -22 -114 4 -75 3 -85 -11 -79 -9 3 -27 10 -41 14 -14 4
-38 15 -55 24 -41 22 -55 20 -55 -6 l0 -22 -16 23 c-12 17 -15 39 -12 85 3 55
10 72 51 132 75 111 92 179 62 251 -29 68 -75 81 -133 37 -47 -36 -74 -102
-118 -279 -44 -183 -51 -302 -19 -334 39 -39 265 -71 505 -71 86 -1 110 -3 97
-11 -12 -7 -91 -10 -230 -7 -173 3 -223 7 -269 23 -32 10 -60 16 -63 13 -4 -3
5 -18 20 -34 14 -15 31 -48 39 -73 12 -42 16 -47 52 -53 50 -9 344 -10 452 -1
l82 6 0 66 c0 64 1 67 37 97 35 30 36 32 35 100 -1 65 -49 397 -72 499 -14 62
-35 92 -76 107 -31 11 -34 16 -34 53 0 70 -52 158 -121 206 -18 12 -23 27 -26
75 -4 52 -1 64 24 104 l29 45 215 -3 c142 -2 226 1 249 8 19 7 76 15 125 18
89 7 90 7 93 35 3 27 3 27 -55 26 -32 0 -80 -4 -108 -9 -27 -5 -79 -13 -115
-19 -69 -11 -320 -4 -320 10 0 15 133 91 213 121 74 28 96 32 232 37 187 7
198 27 15 24 -110 -1 -137 -5 -216 -31 -99 -33 -182 -74 -247 -122 -41 -31
-44 -31 -122 -25 -272 20 -308 26 -380 59 -195 91 -370 94 -522 10 -35 -19
-62 -24 -175 -29 -157 -8 -405 -37 -573 -66 -107 -19 -127 -20 -185 -9 -165
33 -341 3 -448 -77 -35 -26 -145 -44 -372 -59 -101 -6 -108 -5 -156 20 -82 43
-186 52 -351 32 -76 -10 -167 -25 -203 -35 -59 -16 -79 -17 -213 -6 -119 10
-154 17 -175 32 -44 32 -136 72 -204 88 -115 27 -235 16 -333 -32 -48 -23 -54
-23 -145 -13 -271 31 -589 81 -674 106 -27 8 -61 14 -75 14 -15 0 -42 9 -61
20 -90 52 -163 81 -255 99 -130 25 -245 33 -245 16z m5160 -66 c70 -11 177
-46 186 -61 4 -5 -62 -6 -163 -1 -92 4 -203 8 -245 7 -43 0 -78 2 -78 6 0 15
146 57 205 59 17 0 59 -4 95 -10z m-454 -154 c-21 -30 -42 -97 -60 -186 l-6
-26 -67 10 c-93 12 -216 3 -288 -23 -33 -11 -66 -23 -73 -25 -7 -3 -15 -6 -19
-7 -4 -2 -6 18 -4 44 1 28 -4 58 -13 77 -19 36 -65 81 -83 81 -27 0 -11 19 20
24 17 3 77 12 132 20 55 8 150 20 210 26 61 6 119 13 130 14 11 2 48 4 82 5
l62 1 -23 -35z m-3981 -9 c109 -20 254 -42 410 -61 72 -9 144 -18 161 -20 l30
-5 -87 -89 c-86 -87 -183 -223 -221 -309 l-19 -43 -38 53 c-20 29 -45 67 -56
85 -64 103 -197 288 -249 347 -52 59 -57 68 -36 63 14 -3 61 -12 105 -21z
m3169 4 c5 -5 -9 -11 -30 -15 -22 -3 -75 -12 -119 -20 -44 -8 -116 -19 -159
-26 -44 -6 -86 -13 -93 -16 -7 -3 -13 0 -13 5 0 13 48 38 110 59 80 27 281 35
304 13z m-2088 -9 c68 -22 152 -59 159 -72 6 -9 -77 -4 -279 17 -76 8 -161 14
-189 14 -61 0 -54 11 23 38 75 27 204 28 286 3z m3952 4 c1 -1 -9 -24 -24 -51
-23 -43 -25 -57 -20 -111 6 -67 1 -79 -14 -38 -14 36 -99 163 -119 178 -10 6
-21 18 -26 26 -7 12 9 13 96 6 57 -4 105 -8 107 -10z m-2952 -75 c73 -9 124
-27 124 -42 0 -10 -488 -9 -515 1 -30 12 151 42 290 49 17 1 62 -3 101 -8z
m527 -83 c-4 -7 -32 -48 -61 -90 -29 -43 -67 -108 -84 -145 -22 -47 -32 -61
-35 -47 -17 92 -52 182 -90 232 l-24 32 43 6 c24 3 88 10 143 14 55 5 104 9
108 10 4 0 4 -5 0 -12z m-1123 -5 c0 -10 -69 -77 -73 -71 -2 2 -13 21 -25 42
l-21 37 59 0 c33 0 60 -4 60 -8z m2524 -87 c46 -19 55 -41 28 -67 -39 -39 -92
-3 -92 63 0 23 16 24 64 4z m956 -9 c0 -2 -18 -13 -40 -25 -48 -25 -52 -21 -7
8 31 20 47 26 47 17z m120 -46 c0 -5 -2 -10 -4 -10 -3 0 -8 5 -11 10 -3 6 -1
10 4 10 6 0 11 -4 11 -10z m-1674 -27 c-35 -152 5 -309 99 -392 53 -46 108
-71 175 -78 33 -3 60 -9 60 -12 0 -4 -28 -22 -62 -41 -59 -33 -68 -35 -158
-35 -80 0 -102 4 -139 23 -49 27 -131 107 -131 128 0 8 -7 29 -16 47 -11 20
-17 55 -17 97 1 93 34 161 114 233 34 32 67 57 72 57 5 0 6 -12 3 -27z m1704
-35 c17 -37 28 -118 16 -118 -2 0 -13 -3 -23 -6 -15 -6 -16 -4 -5 7 16 18 15
88 -3 119 -15 27 -18 40 -10 40 4 0 15 -19 25 -42z m-283 -30 c-5 -24 -13 -52
-18 -63 -7 -18 -8 -17 -8 6 -1 24 24 99 33 99 2 0 -1 -19 -7 -42z m113 -87 c0
-6 -5 -13 -11 -17 -6 -3 -9 -19 -7 -35 5 -31 -9 -38 -30 -17 -17 17 -15 38 5
60 17 19 43 24 43 9z m60 -43 c0 -25 -28 -34 -48 -15 -14 15 -14 18 3 37 21
23 45 11 45 -22z m49 23 c9 -6 10 -11 2 -15 -22 -14 -10 -26 24 -26 23 0 41 7
52 20 51 59 114 -21 128 -162 4 -35 18 -132 31 -216 13 -84 24 -177 24 -207 0
-47 -4 -56 -29 -78 -27 -22 -36 -24 -103 -19 -40 2 -75 6 -77 8 -2 2 11 18 29
36 41 42 64 77 57 85 -4 3 -12 1 -19 -5 -14 -11 -113 -42 -135 -42 -7 0 -13 5
-13 10 0 6 7 10 15 10 35 0 113 50 134 85 30 52 27 106 -15 205 -19 47 -38
106 -41 133 -5 42 -4 47 14 47 11 0 26 7 33 15 10 13 9 19 -6 36 -17 19 -27
21 -87 16 -61 -5 -66 -4 -51 10 10 10 13 25 10 39 -7 25 0 29 23 15z m51 -15
c0 -3 -4 -8 -10 -11 -5 -3 -10 -1 -10 4 0 6 5 11 10 11 6 0 10 -2 10 -4z
m-3631 -152 c-14 -17 -1 -40 14 -25 14 14 211 15 202 2 -10 -17 -152 -99 -176
-103 -28 -4 -36 -24 -12 -32 16 -5 93 -130 93 -151 0 -10 -130 62 -157 88 -13
11 -23 31 -23 44 0 14 -4 21 -10 18 -5 -3 -10 -14 -10 -24 0 -10 -15 -30 -32
-43 -34 -24 -106 -68 -113 -68 -3 0 2 15 9 33 8 17 22 53 31 79 9 25 23 49 30
52 25 9 17 26 -12 26 -16 0 -47 13 -71 29 l-43 28 68 11 c43 7 69 8 71 2 2 -6
13 -10 24 -10 16 0 19 5 15 22 -4 12 5 55 20 97 l27 75 33 -69 c24 -50 30 -72
22 -81z m3328 128 c7 -4 20 -25 28 -47 25 -58 13 -111 -45 -199 -64 -99 -88
-171 -72 -225 7 -22 25 -50 40 -63 15 -13 38 -40 50 -60 13 -20 32 -40 43 -43
45 -15 4 -17 -88 -6 -104 13 -158 33 -175 64 -15 28 -11 114 7 172 8 28 26
101 40 162 30 136 46 178 87 221 31 31 60 40 85 24z m-2358 -212 c7 -74 14
-154 18 -177 7 -53 -8 -56 -30 -5 -37 84 -45 177 -26 291 15 86 23 64 38 -109z
m-2157 118 c7 -58 -5 -79 -21 -40 -12 29 -6 82 9 82 4 0 10 -19 12 -42z m4717
-165 c1 -35 -13 -44 -23 -17 -8 22 -8 69 1 78 10 10 21 -22 22 -61z m-4679 53
c0 -2 -9 -6 -20 -9 -11 -3 -18 -1 -14 4 5 9 34 13 34 5z m-90 -20 c0 -3 -17
-10 -37 -16 -117 -35 -150 -70 -131 -139 6 -20 14 -44 19 -53 8 -15 5 -18 -16
-18 -18 0 -25 5 -25 19 0 11 -5 23 -10 26 -6 3 -17 19 -25 35 -13 26 -13 30 6
54 19 24 117 77 164 89 27 6 55 8 55 3z m128 -129 c-3 -45 -6 -52 -25 -55 -19
-3 -23 1 -23 25 0 15 -7 52 -15 82 -8 30 -11 59 -8 64 3 6 21 -6 40 -27 31
-33 34 -42 31 -89z m101 107 c84 -29 110 -51 111 -92 0 -48 -59 -112 -104
-112 -21 0 -20 11 6 64 21 44 21 44 1 77 -10 19 -34 44 -53 56 -38 27 -24 29
39 7z m-57 -23 c25 -16 49 -39 53 -52 9 -28 -25 -137 -45 -144 -8 -4 -67 -9
-132 -12 -133 -7 -178 4 -178 42 0 12 -5 36 -11 54 -18 50 3 86 59 105 54 19
73 20 52 3 -30 -23 -70 -84 -70 -106 0 -25 45 -71 70 -71 13 0 19 12 23 50 6
46 33 110 47 110 4 0 11 -33 16 -72 l9 -73 30 3 c38 4 51 18 59 63 5 26 0 47
-18 82 -13 26 -20 47 -17 47 4 0 28 -13 53 -29z m-177 -47 c-14 -26 -25 -60
-25 -75 0 -32 -24 -40 -34 -13 -13 34 -5 63 28 98 47 50 60 45 31 -10z m4779
-46 c12 -47 0 -167 -18 -186 -4 -3 -14 1 -23 10 -10 11 -17 41 -21 87 -4 59
-2 75 13 91 24 26 41 25 49 -2z m-4947 -150 c13 -15 13 -23 -2 -69 -23 -69
-16 -165 18 -240 14 -31 28 -71 32 -88 6 -27 3 -31 -19 -37 -14 -3 -26 -10
-26 -15 0 -17 32 -22 42 -8 8 12 9 12 6 -1 -3 -8 7 -24 21 -37 25 -21 25 -22
5 -23 -29 0 -94 28 -94 41 0 6 4 19 10 29 13 25 2 50 -40 97 -78 84 -84 99
-84 194 0 96 10 121 73 176 30 26 37 28 40 15 1 -10 10 -25 18 -34z m30 16
c-9 -9 -28 6 -21 18 4 6 10 6 17 -1 6 -6 8 -13 4 -17z m204 3 c68 6 126 9 127
7 2 -1 -20 -10 -49 -18 -60 -18 -254 -22 -264 -6 -12 20 5 28 34 17 21 -7 64
-8 152 0z m263 -43 c45 -58 59 -104 54 -168 -7 -87 -76 -198 -130 -210 -35 -8
-35 3 -4 52 13 20 29 55 36 76 16 50 6 159 -20 229 -25 66 -25 67 5 67 17 0
34 -13 59 -46z m-90 -16 c24 -67 37 -165 26 -212 -11 -50 -61 -146 -83 -160
-11 -7 -25 -7 -44 0 -28 10 -28 10 -28 96 0 53 -5 92 -12 99 -6 6 -9 25 -6 44
5 31 -18 85 -37 85 -11 0 -31 -76 -24 -94 4 -10 0 -18 -11 -22 -14 -6 -16 -20
-13 -100 3 -103 -1 -112 -53 -120 -32 -5 -36 -3 -53 33 -30 62 -66 193 -65
237 0 23 8 61 18 85 l18 45 94 -2 c52 -1 126 5 164 12 39 8 75 14 82 15 6 0
18 -18 27 -41z m4419 6 l52 -25 -46 5 c-62 7 -99 22 -99 41 0 19 16 15 93 -21z
m-2383 11 c10 -13 9 -15 -9 -15 -12 0 -21 6 -21 15 0 8 4 15 9 15 5 0 14 -7
21 -15z m66 -29 c10 -8 17 -17 14 -19 -3 -3 -16 3 -29 14 -27 22 -15 26 15 5z
m-17 -28 c9 -25 4 -39 -7 -22 -4 6 -18 18 -32 27 l-24 17 27 0 c19 0 30 -7 36
-22z m2366 7 c33 -2 77 -6 97 -10 22 -4 52 -2 73 5 44 15 52 9 28 -19 -16 -19
-28 -21 -126 -21 -112 0 -158 12 -171 45 -5 13 -1 15 17 9 12 -4 49 -8 82 -9z
m-2396 -33 c13 -24 2 -38 -31 -44 -37 -7 -62 12 -54 40 9 29 70 31 85 4z
m-2219 -53 c0 -10 -4 -19 -10 -19 -5 0 -10 12 -10 26 0 14 4 23 10 19 6 -3 10
-15 10 -26z m2325 -47 c63 -17 91 -47 103 -112 6 -30 9 -56 7 -58 -2 -2 -12 1
-24 7 -12 7 -23 26 -27 49 -10 56 -32 91 -59 97 -14 3 -36 7 -50 10 -31 7 -34
-14 -5 -40 22 -20 42 -79 33 -101 -3 -8 -16 -14 -29 -14 -22 0 -24 4 -24 54 0
61 -19 91 -61 101 -30 7 -33 2 -44 -97 -7 -52 -10 -58 -31 -58 -31 0 -32 30
-4 85 23 45 25 62 8 68 -10 3 -10 9 -2 23 9 15 21 18 61 16 37 -3 55 1 73 16
l25 20 3 -27 c2 -23 10 -29 47 -39z m2418 61 c-13 -2 -33 -2 -45 0 -13 2 -3 4
22 4 25 0 35 -2 23 -4z m-289 -54 c68 -11 425 -8 462 5 18 6 22 3 26 -18 3
-14 3 -37 1 -50 -5 -24 -6 -24 -173 -31 -207 -9 -370 1 -370 21 0 8 -9 33 -21
56 -17 34 -18 40 -5 35 9 -4 45 -11 80 -18z m-4445 -117 c-2 -78 0 -87 20
-104 13 -10 35 -18 49 -18 16 0 22 -4 16 -9 -13 -13 -244 -18 -244 -6 0 6 18
11 40 13 61 5 73 30 65 130 -7 71 -5 81 11 90 35 19 45 -3 43 -96z m2020 55
c-20 -17 -42 -47 -49 -64 -16 -43 -54 -48 -44 -5 9 35 30 60 74 83 52 27 59
23 19 -14z m476 -127 c3 -6 -1 -7 -9 -4 -18 7 -21 14 -7 14 6 0 13 -4 16 -10z
m-530 -65 c39 -10 120 -15 230 -16 137 -1 162 -3 128 -11 -46 -12 -422 -1
-443 12 -14 9 -5 30 13 30 7 -1 39 -7 72 -15z m-1885 -21 c0 -4 -7 -16 -17
-26 -22 -25 -197 -27 -207 -2 -9 22 -9 22 22 26 56 8 202 9 202 2z m117 -10
c3 -9 -96 -38 -104 -30 -1 1 0 12 4 24 5 20 11 23 51 20 25 -2 47 -8 49 -14z
m2268 -25 c4 -22 4 -43 1 -46 -3 -4 -6 5 -6 20 0 16 -10 33 -26 46 l-27 21 26
0 c22 0 26 -6 32 -41z m-305 -46 c21 -19 34 -45 42 -80 7 -29 16 -53 19 -53 4
0 10 21 14 48 13 89 87 130 148 82 20 -16 27 -32 32 -78 9 -80 12 -87 30 -72
13 11 15 8 15 -14 0 -15 -4 -25 -9 -21 -13 8 -20 -6 -31 -67 -7 -39 -18 -60
-40 -80 -60 -55 -120 -25 -150 73 -8 28 -19 51 -24 50 -5 0 -18 -22 -28 -49
-45 -121 -156 -134 -189 -21 -15 50 -25 50 -34 -1 -4 -22 -15 -50 -24 -62
l-18 -22 -18 27 c-14 22 -16 38 -10 85 4 31 8 104 10 162 3 92 6 105 21 105
13 0 23 -17 38 -62 19 -61 36 -82 36 -45 0 23 36 83 63 104 32 26 72 22 107
-9z m-2170 -3 c-29 -23 -35 -24 -61 -10 -34 18 -21 30 34 30 l52 0 -25 -20z
m2480 -307 c0 -35 -4 -63 -9 -63 -12 0 -21 75 -14 117 9 53 23 19 23 -54z
m-241 -2 c11 -21 33 -48 48 -59 l28 -20 -39 -7 c-45 -9 -308 -1 -325 9 -7 5
-4 14 9 28 11 12 20 26 20 32 0 5 13 -2 28 -17 23 -22 37 -27 78 -27 42 0 55
5 76 28 14 15 31 37 37 50 6 12 14 22 16 22 3 0 14 -18 24 -39z m201 -45 c0
-8 -10 -16 -22 -20 -43 -11 -49 -6 -21 18 28 25 43 25 43 2z m-445 -53 l48 -6
-34 -16 c-19 -9 -41 -30 -49 -48 -11 -22 -24 -33 -45 -36 -16 -3 -33 -3 -37 0
-5 2 -8 29 -8 59 l0 54 39 0 c21 0 60 -3 86 -7z m516 -9 c5 -3 9 -25 9 -50 l0
-44 -50 0 c-43 0 -50 3 -50 20 0 10 -10 28 -22 40 -42 39 -148 15 -148 -35 0
-23 -2 -24 -52 -18 -29 3 -55 11 -57 17 -2 6 -17 23 -32 38 l-27 28 76 1 c42
0 97 4 122 9 46 9 214 5 231 -6z"/>
</g>
</svg>
