<?xml version="1.0" standalone="no"?>
<svg version="1.0" xmlns="http://www.w3.org/2000/svg"
 width="499.000000pt" height="499.000000pt" viewBox="0 0 499.000000 499.000000"
 preserveAspectRatio="xMidYMid meet">

<g transform="translate(0.000000,499.000000) scale(0.100000,-0.100000)"
fill="none" stroke="#000000" stroke-width="15">

<path d="M2609 4470 c-9 -5 -22 -36 -29 -71 -7 -33 -19 -63 -26 -66 -7 -3 -54
7 -103 22 -50 14 -116 29 -146 32 l-55 6 -15 -38 -16 -37 -62 8 c-34 5 -87 9
-117 9 l-55 0 -3 -80 c-2 -44 2 -181 8 -305 6 -124 14 -284 17 -355 l6 -131
-27 -18 c-76 -50 -336 -331 -513 -556 -28 -36 -65 -77 -82 -92 -21 -18 -31
-35 -31 -55 0 -34 113 -375 162 -488 84 -192 180 -362 280 -493 l41 -52 -59
-163 c-62 -172 -256 -574 -363 -752 -33 -55 -57 -103 -53 -107 5 -5 46 -15 92
-24 47 -9 89 -20 94 -25 4 -4 -10 -55 -33 -114 -23 -58 -41 -107 -41 -109 0
-2 117 -6 259 -10 174 -5 266 -4 279 3 16 8 25 42 51 183 33 175 53 283 91
483 29 153 66 315 92 411 l23 82 75 50 c41 28 95 68 120 89 83 71 73 69 137
30 32 -19 122 -67 201 -106 162 -81 149 -56 107 -206 -60 -208 -138 -561 -150
-670 -5 -46 -4 -63 6 -71 42 -32 272 -109 291 -98 4 3 8 33 9 67 0 34 4 82 8
107 9 53 10 50 41 -103 21 -102 34 -137 51 -137 17 0 299 131 321 149 23 19
32 -28 -95 472 -46 176 -79 328 -83 377 -6 73 -5 84 16 119 93 157 249 641
285 886 38 256 -5 365 -198 499 -157 110 -358 215 -588 307 -98 39 -108 45
-123 79 -25 57 -46 151 -46 204 l0 48 59 0 c57 0 61 2 106 46 48 49 85 110 85
142 0 16 19 25 112 51 62 17 116 35 121 40 11 11 -62 212 -100 279 -13 23 -31
42 -39 42 -8 0 -42 -18 -75 -40 -32 -23 -59 -39 -59 -36 0 2 14 36 31 76 16
39 29 81 27 93 -7 47 -272 144 -319 117z m107 -35 c41 -14 102 -39 134 -55
l60 -30 -14 -33 c-8 -17 -34 -79 -58 -137 -25 -58 -53 -122 -64 -142 l-19 -37
-72 46 c-40 25 -73 49 -73 55 0 5 16 43 35 85 33 71 34 78 19 94 -9 10 -29 21
-45 24 -32 7 -33 13 -20 65 5 19 12 47 15 63 4 15 11 27 17 27 6 0 44 -11 85
-25z m-250 -121 c67 -18 133 -38 147 -43 l26 -10 -27 -63 c-45 -100 -112 -288
-172 -483 l-56 -180 -124 -6 c-69 -4 -140 -10 -159 -14 l-33 -8 7 34 c14 68
156 675 165 704 5 17 14 49 20 73 11 42 11 43 48 37 20 -4 92 -22 158 -41z
m-330 -20 c28 -3 57 -9 63 -13 9 -6 -7 -87 -58 -297 -38 -159 -72 -311 -76
-337 -4 -27 -11 -45 -15 -40 -14 15 -39 591 -31 697 1 4 16 6 34 2 17 -3 55
-8 83 -12z m910 -149 c45 -102 77 -185 72 -190 -1 -1 -54 -17 -116 -35 l-113
-31 -47 42 c-26 23 -51 45 -55 49 -5 4 9 42 30 84 35 69 44 79 108 120 39 24
74 43 78 42 5 -1 24 -37 43 -81z m-352 -136 c43 -29 106 -78 139 -109 61 -57
62 -58 47 -86 -8 -15 -39 -52 -68 -82 l-52 -54 -53 44 c-65 55 -158 118 -174
118 -7 0 -13 4 -13 9 0 26 74 211 84 211 7 0 47 -23 90 -51z m-118 -221 c30
-18 54 -36 54 -40 0 -9 -122 2 -133 12 -11 9 2 60 15 60 5 0 34 -15 64 -32z
m55 -74 c3 -2 -2 -52 -12 -111 -10 -59 -18 -129 -19 -155 0 -27 -4 -48 -9 -48
-26 0 -68 25 -120 71 l-58 51 24 81 c42 140 32 129 116 121 39 -3 75 -8 78
-10z m59 -14 c0 -5 -4 -10 -10 -10 -5 0 -10 5 -10 10 0 6 5 10 10 10 6 0 10
-4 10 -10z m-4 -318 c-2 -1 -15 2 -30 7 -24 10 -26 15 -26 74 0 35 3 67 7 70
4 4 17 -28 29 -70 12 -43 21 -79 20 -81z m-302 108 c31 -11 184 -156 175 -165
-4 -3 -94 0 -200 6 l-194 13 -47 50 c-26 28 -47 56 -48 62 0 10 38 24 105 38
40 8 184 6 209 -4z m-305 -109 c23 -27 41 -51 41 -54 0 -2 -50 -33 -112 -67
-106 -60 -112 -62 -125 -44 -36 49 -31 64 51 141 43 40 84 73 91 73 7 0 32
-22 54 -49z m621 -40 c0 -3 -9 -17 -20 -31 l-19 -25 -40 40 c-23 21 -41 42
-41 46 0 4 27 0 60 -8 33 -9 60 -18 60 -22z m188 -72 c81 -34 151 -66 156 -70
13 -12 -20 -79 -38 -79 -8 0 -70 13 -137 29 -116 28 -126 32 -156 68 -26 31
-30 41 -21 58 11 22 39 55 45 55 2 0 70 -28 151 -61z m-468 30 c96 -7 181 -15
188 -19 16 -8 172 -201 172 -212 0 -4 -55 -8 -122 -8 -68 0 -146 -3 -175 -6
-52 -7 -52 -6 -90 36 -21 24 -71 80 -110 124 -40 44 -73 84 -73 88 0 10 4 10
210 -3z m-197 -76 c171 -185 161 -172 141 -178 -35 -11 -169 -77 -225 -111
-31 -19 -61 -34 -65 -34 -5 0 -16 12 -25 28 -107 181 -141 243 -138 246 12 10
225 126 232 126 5 0 41 -35 80 -77z m-377 -8 c7 -19 14 -36 14 -39 0 -7 -211
-139 -215 -134 -4 4 173 208 181 208 3 0 12 -16 20 -35z m1338 -86 c152 -86
200 -119 188 -131 -7 -7 -35 0 -94 25 -46 19 -116 45 -155 58 -40 13 -73 29
-73 35 0 21 22 64 33 64 5 0 50 -23 101 -51z m-1225 -119 c45 -74 81 -135 81
-136 0 -1 -51 -37 -112 -80 -62 -42 -130 -91 -151 -107 -22 -17 -42 -26 -47
-21 -16 18 -112 316 -103 323 82 58 246 161 250 157 1 -1 38 -62 82 -136z
m1038 85 c14 -5 -49 -171 -64 -168 -4 1 -27 29 -50 63 -23 34 -56 79 -73 100
-16 21 -30 42 -30 48 0 8 169 -25 217 -43z m160 -49 c126 -44 193 -73 193 -84
0 -4 -25 -68 -55 -142 -30 -74 -55 -141 -55 -148 0 -16 -3 -15 -104 23 -76 29
-80 32 -127 102 -27 40 -49 80 -49 90 0 30 72 193 85 193 7 0 57 -15 112 -34z
m-269 -131 c38 -55 74 -110 81 -122 l12 -23 -164 0 -163 0 -97 119 c-53 66
-97 122 -97 125 0 7 331 13 347 6 7 -3 43 -50 81 -105z m-379 -17 c55 -67 101
-125 101 -129 0 -4 -19 -18 -42 -32 -24 -14 -92 -60 -151 -102 -59 -43 -109
-76 -111 -74 -1 2 -27 38 -58 79 -78 104 -125 170 -143 202 l-14 26 69 41 c88
53 210 111 231 111 9 0 62 -55 118 -122z m947 56 c24 -20 44 -40 44 -44 0 -14
-99 54 -99 68 -1 19 7 15 55 -24z m-1810 -159 c30 -83 53 -155 52 -160 -2 -6
-37 -42 -78 -79 -41 -38 -84 -82 -95 -97 -11 -16 -22 -29 -25 -29 -8 0 -100
281 -100 304 0 10 30 55 67 100 75 92 102 118 116 113 5 -1 34 -70 63 -152z
m1857 79 c35 -25 47 -41 47 -60 0 -40 -31 -171 -66 -282 -3 -11 -12 -9 -37 7
-17 12 -67 40 -109 63 -43 23 -78 46 -78 51 0 8 107 274 117 290 5 9 59 -20
126 -69z m-1393 -102 c25 -36 73 -105 108 -152 l63 -85 -38 -30 c-21 -16 -78
-66 -126 -110 -49 -44 -106 -95 -127 -113 l-38 -33 -36 58 c-52 82 -169 314
-162 320 19 19 293 212 301 212 6 0 30 -30 55 -67z m1484 -109 c-1 -97 -18
-213 -33 -213 -4 0 -19 12 -33 28 l-26 27 28 110 c15 61 31 123 34 139 5 22
10 26 19 17 7 -7 11 -48 11 -108z m-622 68 c35 -1 37 -3 87 -96 28 -53 51
-102 51 -109 0 -11 -9 -12 -42 -6 -24 5 -83 16 -133 25 -49 8 -102 18 -117 21
-21 4 -42 26 -83 86 -30 44 -55 83 -55 86 0 4 57 4 127 0 71 -3 144 -6 165 -7z
m-273 -81 c34 -47 61 -90 61 -97 0 -15 -96 -127 -174 -203 -48 -47 -58 -52
-69 -40 -54 61 -187 219 -187 222 0 15 287 211 301 206 4 -2 35 -41 68 -88z
m461 9 c30 -12 57 -24 59 -25 2 -2 -23 -82 -55 -178 -59 -176 -67 -189 -102
-167 -11 6 -6 19 22 58 52 72 78 136 70 170 -4 15 -22 58 -40 95 -38 75 -40
83 -21 75 6 -3 37 -15 67 -28z m184 -89 c146 -81 137 -51 72 -254 -31 -97 -61
-176 -66 -176 -5 0 -33 15 -62 34 -29 18 -77 45 -105 60 -29 14 -53 32 -53 38
0 19 112 348 118 348 3 0 47 -23 96 -50z m-1559 -101 c33 -63 77 -142 98 -176
20 -33 37 -64 37 -68 0 -8 -211 -235 -219 -235 -16 0 -191 368 -191 400 0 16
191 201 204 198 6 -2 38 -56 71 -119z m1180 41 c172 -30 159 -24 139 -62 -47
-92 -229 -318 -257 -318 -15 0 -243 118 -273 141 -7 6 18 39 76 97 48 48 100
107 115 131 22 32 33 41 49 38 12 -3 80 -15 151 -27z m-561 -120 c53 -63 95
-118 94 -121 -4 -8 -150 -143 -241 -221 -38 -33 -75 -58 -82 -56 -16 4 -195
208 -195 223 0 20 306 299 321 292 4 -1 50 -54 103 -117z m1131 50 l29 -31
-17 -67 c-40 -153 -81 -292 -86 -292 -3 0 -24 15 -45 33 l-39 34 57 176 c31
97 60 177 65 177 4 0 20 -14 36 -30z m-470 -182 c19 -9 25 -18 22 -32 -6 -27
-80 -300 -83 -304 -3 -6 -194 81 -194 89 0 7 219 259 226 259 2 0 15 -5 29
-12z m-378 -85 l147 -77 -163 -158 c-90 -87 -170 -158 -177 -158 -19 0 -286
170 -282 180 4 12 311 289 321 290 4 0 73 -35 154 -77z m528 9 c44 -23 91 -51
105 -62 l25 -19 -44 -133 c-24 -73 -47 -143 -52 -155 -8 -21 -10 -21 -111 32
-101 53 -103 55 -100 87 5 58 75 299 86 296 6 -2 47 -22 91 -46z m-1172 -107
c53 -63 97 -118 96 -122 0 -10 -159 -140 -216 -178 -23 -15 -49 -25 -57 -22
-18 7 -99 116 -128 171 l-20 39 49 51 c119 127 168 176 173 176 4 0 50 -52
103 -115z m1369 -22 c18 -15 35 -28 37 -30 5 -3 -33 -108 -76 -210 -37 -87
-37 -87 -87 -51 -18 14 -16 20 30 166 27 84 52 152 55 152 4 0 22 -12 41 -27z
m-420 -212 c-4 -25 -7 -94 -7 -153 0 -60 -2 -108 -5 -108 -17 0 -288 145 -302
162 -13 14 -18 37 -18 78 l0 58 60 55 60 56 110 -51 109 -51 -7 -46z m-695 19
c56 -36 115 -73 132 -82 17 -9 31 -21 31 -26 0 -12 -127 -106 -180 -132 -37
-19 -55 -22 -110 -17 -90 8 -188 40 -232 77 -42 35 -46 46 -20 54 10 4 72 50
138 105 65 54 124 96 129 92 6 -3 56 -35 112 -71z m839 -41 c52 -28 94 -54 94
-59 0 -21 -64 -187 -78 -202 -18 -21 -49 -23 -103 -6 -44 13 -42 2 -39 183 1
108 6 135 22 135 6 0 53 -23 104 -51z m-501 -15 c8 -44 5 -48 -29 -33 -30 14
-32 25 -9 51 23 26 30 23 38 -18z m666 -83 c21 -17 22 -21 10 -49 -14 -32 -98
-118 -108 -109 -9 9 51 177 63 177 6 0 22 -8 35 -19z m-1427 -93 c-13 -123
-133 -523 -260 -870 -26 -69 -32 -78 -54 -78 -44 1 -145 26 -143 36 1 5 21 41
44 79 120 196 373 743 395 853 10 52 24 37 18 -20z m88 -8 c39 -23 187 -60
240 -60 l36 0 -14 -47 c-46 -149 -124 -529 -207 -1002 l-13 -74 -229 2 c-127
1 -233 6 -238 10 -4 4 13 59 39 122 153 377 304 845 329 1022 4 26 11 47 16
47 4 0 23 -9 41 -20z m1327 -106 c2 -69 74 -380 151 -649 15 -55 30 -118 32
-140 l3 -39 -135 -63 c-74 -34 -142 -62 -151 -63 -18 0 -46 103 -78 291 -19
113 -18 138 24 419 38 255 33 240 90 278 45 30 50 32 56 15 4 -10 8 -32 8 -49z
m-255 11 c27 -8 62 -15 78 -15 27 0 29 -2 24 -32 -19 -120 -49 -318 -61 -398
-8 -52 -19 -178 -25 -280 -7 -102 -12 -186 -13 -187 -5 -4 -231 77 -240 86 -6
6 -6 37 3 93 24 161 167 748 182 748 2 0 25 -7 52 -15z"/>
</g>
</svg>
